<svg width="100%" min-height="0" viewBox="0 0 2034 622" fill="none"
  xmlns="http://www.w3.org/2000/svg">

  <g id="White_logo_no lines New">
    <g id="icon-white">
      <path id="_R_G_L_0_G_L_5_G_D_0_P_0" d="M410.179 222.343C406.054 216.073 398.801 211.955 390.724 211.955C386.014 211.955 381.634 213.358 377.951 215.773C375.326 217.498 373.061 219.733 371.276 222.343L369.131 226.295L205.331 514.25C198.574 526.775 186.821 541.798 175.444 550.205C158.801 562.895 138.026 570.478 115.609 570.478C60.7163 570.478 16.2113 525.973 16.2113 471.08C16.2113 448.408 24.6713 429.463 35.8313 410.09L43.4138 396.575L222.424 81.7325C232.811 62.6075 253.084 49.5875 276.326 49.5875C299.734 49.5875 320.014 62.6075 330.394 81.7325L390.724 187.888L410.179 222.343Z" fill="white" />
    </g>
    <g id="icon-blue">
      <path id="_R_G_L_0_G_L_4_G_D_0_P_0" d="M536.606 471.08C536.606 525.973 492.101 570.478 437.209 570.478H276.326C268.249 570.478 260.336 570.148 252.424 569.323L396.499 315.8L398.471 312.343C405.401 302.285 416.936 295.693 429.956 295.693C442.984 295.693 454.519 302.285 461.441 312.178L463.586 315.965L516.994 410.09L522.266 419.983C530.756 434.945 536.606 452.293 536.606 471.08Z" fill="#0F63FA" />
    </g>
    <g id="letter-b">
      <path id="_R_G_L_0_G_L_3_G_D_0_P_0" d="M990.559 325.175C1020.47 303.628 1035.6 271.535 1035.6 229.445C1035.6 190.363 1021.5 158.735 993.679 135.433C966.574 112.745 928.376 101.233 880.144 101.233H736.084C709.894 101.233 688.594 122.54 688.594 148.723V522.988C688.594 549.17 709.894 570.478 736.084 570.478H883.946C1029.71 570.478 1060.3 495.598 1060.3 432.778C1060.3 383.225 1036.87 347.128 990.559 325.175ZM977.426 430.228C977.426 449.068 970.826 463.115 957.266 473.165C942.626 484.01 916.039 489.508 878.254 489.508H773.366V371.6H878.876C967.204 371.6 977.426 405.058 977.426 430.228ZM773.366 292.52V182.21H875.704C894.334 182.21 910.009 184.993 922.496 190.49C926.914 192.44 930.941 194.728 934.549 197.353C947.201 206.555 953.351 219.23 953.351 236.098C953.351 253.34 947.494 266.615 935.426 276.665C922.984 287.03 898.609 292.52 864.941 292.52H773.366Z" fill="white" />
    </g>
    <g id="letter-n">
      <path id="_R_G_L_0_G_L_2_G_D_0_P_0" d="M1389.27 255.553C1361.76 234.77 1328.92 223.775 1294.32 223.775C1266.75 223.775 1240.29 230.765 1216.75 244.13C1209.86 230.045 1195.38 220.318 1178.67 220.318C1155.3 220.318 1136.29 239.33 1136.29 262.693V528.11C1136.29 551.473 1155.3 570.478 1178.67 570.478C1202.03 570.478 1221.04 551.473 1221.04 528.11V380.735C1221.04 354.425 1234.04 330.11 1254.97 317.285C1275.69 304.565 1302.41 302.818 1324.56 312.508C1350.66 323.938 1367.52 350.878 1367.52 381.133V528.11C1367.52 551.473 1386.53 570.478 1409.89 570.478C1433.25 570.478 1452.27 551.473 1452.27 528.11V381.733C1452.27 331.663 1429.3 285.665 1389.27 255.553Z" fill="white" />
    </g>
    <g id="letter-a">
      <path id="_R_G_L_0_G_L_1_G_D_0_P_0" d="M1797.18 250.738C1772.21 223.43 1736.34 209.585 1690.57 209.585C1653.78 209.585 1618.43 215.593 1585.47 227.45C1569.36 233.233 1558.98 249.275 1560.24 266.45C1561.1 278.255 1567.21 288.845 1577 295.498C1586.7 302.09 1598.64 303.86 1609.79 300.38C1629.24 294.283 1649.93 291.193 1671.25 291.193C1701 291.193 1722.52 296.353 1733.46 306.11C1742.79 314.458 1748.1 328.408 1749.27 347.653H1686.45C1635.95 347.653 1596.66 357.95 1569.67 378.253C1541.49 399.463 1527.2 427.61 1527.2 461.937C1527.2 495.905 1538.91 523.227 1561.98 543.132C1584.45 562.557 1612.05 572.412 1644 572.412C1686.02 572.412 1722.26 560.915 1752.07 538.175C1758 554.435 1773.63 566.082 1791.91 566.082C1815.29 566.082 1834.3 547.062 1834.3 523.693V347.93C1834.3 310.4 1821.81 277.7 1797.18 250.738ZM1749.53 421.025V455.412C1739.44 466.017 1727.21 475.13 1713.08 482.533C1697.82 490.535 1681.83 494.6 1665.54 494.6C1618.06 494.6 1611.97 474.942 1611.97 457.812C1611.97 433.407 1639.59 421.025 1694.04 421.025H1749.53Z" fill="white" />
    </g>
    <g id="dot">
      <path id="_R_G_L_0_G_L_0_G_D_0_P_0" d="M2017.79 532.513C2017.79 553.483 2000.79 570.478 1979.82 570.478H1918.37C1915.28 570.478 1912.26 570.358 1909.23 570.043L1964.27 473.195L1965.03 471.875C1967.67 468.035 1972.08 465.515 1977.05 465.515C1982.02 465.515 1986.43 468.035 1989.08 471.815L1989.9 473.263L2010.3 509.218L2012.31 512.99C2015.55 518.705 2017.79 525.335 2017.79 532.513Z" fill="#0F63FA" />
    </g>
  </g>

  <defs>
    <style>
#icon-white {
        transform-box: fill-box;
        transform-origin: center;
        animation: float 6.5s ease-in-out infinite;
      }

      #icon-blue {
        transform-box: fill-box;
        transform-origin: center;
        animation: float 6.5s ease-in-out 0.5s infinite;
      }

      #letter-b {
        transform-box: fill-box;
        transform-origin: center;
        animation: float 6.5s ease-in-out 1s infinite;
      }

      #letter-n {
        transform-box: fill-box;
        transform-origin: center;
        animation: float 6.5s ease-in-out 1.5s infinite;
      }

      #letter-a {
        transform-box: fill-box;
        transform-origin: center;
        animation: float 6.5s ease-in-out 2s infinite;
      }

      #dot {
        transform-box: fill-box;
        transform-origin: center;
        animation: float 6.5s ease-in-out 2.5s infinite;
      }

      @keyframes float {
        0%,
        20% {
          transform: translateY(0px);
        }

        40%,
        60% {
          transform: translateY(-25px);
        }

        80%,
        100% {
          transform: translateY(0px);
        }
      }
    </style>
  </defs>
</svg>