<svg xmlns="http://www.w3.org/2000/svg"
    xmlns:xlink="http://www.w3.org/1999/xlink" preserveAspectRatio="xMidYMid meet" width="100%" min-height="0" viewBox="0 0 1248 1080" style="width: 100%; height: 100%">
    <defs>
        <animateMotion repeatCount="indefinite" dur="3.2s" begin="0s" xlink:href="#_R_G_L_0_G_L_5_G" fill="freeze" keyTimes="0;0.46875;0.9479167;1" path="M478.47 539.5 C478.47,536.5 478.47,521.5 478.47,521.5 C478.47,521.5 478.47,536.5 478.47,539.5 C478.47,539.5 478.47,539.5 478.47,539.5 " keyPoints="0;0.5;1;1" keySplines="0.534 0 0.206 1;0.502 0 0.175 1;0 0 0 0" calcMode="spline" />
        <animateTransform repeatCount="indefinite" dur="3.2s" begin="0s" xlink:href="#_R_G_L_0_G_L_5_G" fill="freeze" attributeName="transform" from="0.4491 0.4491" to="0.4491 0.4491" type="scale" additive="sum" keyTimes="0;1" values="0.4491 0.4491;0.4491 0.4491" keySplines="0 0 1 1" calcMode="spline" />
        <animateTransform repeatCount="indefinite" dur="3.2s" begin="0s" xlink:href="#_R_G_L_0_G_L_5_G" fill="freeze" attributeName="transform" from="-262.894 -347.511" to="-262.894 -347.511" type="translate" additive="sum" keyTimes="0;1" values="-262.894 -347.511;-262.894 -347.511" keySplines="0 0 1 1" calcMode="spline" />
        <animateMotion repeatCount="indefinite" dur="3.2s" begin="0s" xlink:href="#_R_G_L_0_G_L_4_G" fill="freeze" keyTimes="0;0.0520833;0.5208333;0.9583333;1" path="M587 613 C587,613 587,613 587,613 C587,613 587,595 587,595 C587,595 587,613 587,613 C587,613 587,613 587,613 " keyPoints="0;0;0.5;1;1" keySplines="0.534 0 0.206 1;0.534 0 0.206 1;0.5 0 0.162 1;0 0 0 0" calcMode="spline" />
        <animateTransform repeatCount="indefinite" dur="3.2s" begin="0s" xlink:href="#_R_G_L_0_G_L_4_G" fill="freeze" attributeName="transform" from="0.4491 0.4491" to="0.4491 0.4491" type="scale" additive="sum" keyTimes="0;1" values="0.4491 0.4491;0.4491 0.4491" keySplines="0 0 1 1" calcMode="spline" />
        <animateTransform repeatCount="indefinite" dur="3.2s" begin="0s" xlink:href="#_R_G_L_0_G_L_4_G" fill="freeze" attributeName="transform" from="-504.658 -511.581" to="-504.658 -511.581" type="translate" additive="sum" keyTimes="0;1" values="-504.658 -511.581;-504.658 -511.581" keySplines="0 0 1 1" calcMode="spline" />
        <animateMotion repeatCount="indefinite" dur="3.2s" begin="0s" xlink:href="#_R_G_L_0_G_L_3_G" fill="freeze" keyTimes="0;0.1041667;0.5729167;0.96875;1" path="M874.38 695.23 C874.38,695.23 874.38,695.23 874.38,695.23 C874.38,691.57 874.38,673.23 874.38,673.23 C874.38,673.23 874.38,691.57 874.38,695.23 C874.38,695.23 874.38,695.23 874.38,695.23 " keyPoints="0;0;0.5;1;1" keySplines="0.534 0 0.206 1;0.534 0 0.206 1;0.451 0 0.142 1;0 0 0 0" calcMode="spline" />
        <animateTransform repeatCount="indefinite" dur="3.2s" begin="0s" xlink:href="#_R_G_L_0_G_L_3_G" fill="freeze" attributeName="transform" from="0.4491 0.4491" to="0.4491 0.4491" type="scale" additive="sum" keyTimes="0;1" values="0.4491 0.4491;0.4491 0.4491" keySplines="0 0 1 1" calcMode="spline" />
        <animateTransform repeatCount="indefinite" dur="3.2s" begin="0s" xlink:href="#_R_G_L_0_G_L_3_G" fill="freeze" attributeName="transform" from="-1144.564 -694.772" to="-1144.564 -694.772" type="translate" additive="sum" keyTimes="0;1" values="-1144.564 -694.772;-1144.564 -694.772" keySplines="0 0 1 1" calcMode="spline" />
        <animateMotion repeatCount="indefinite" dur="3.2s" begin="0s" xlink:href="#_R_G_L_0_G_L_2_G" fill="freeze" keyTimes="0;0.15625;0.625;0.9791667;1" path="M1125.77 695.23 C1125.77,695.23 1125.77,695.23 1125.77,695.23 C1125.77,691.57 1125.77,673.23 1125.77,673.23 C1125.77,673.23 1125.77,691.57 1125.77,695.23 C1125.77,695.23 1125.77,695.23 1125.77,695.23 " keyPoints="0;0;0.5;1;1" keySplines="0.534 0 0.206 1;0.534 0 0.206 1;0.451 0 0.142 1;0 0 0 0" calcMode="spline" />
        <animateTransform repeatCount="indefinite" dur="3.2s" begin="0s" xlink:href="#_R_G_L_0_G_L_2_G" fill="freeze" attributeName="transform" from="0.4491 0.4491" to="0.4491 0.4491" type="scale" additive="sum" keyTimes="0;1" values="0.4491 0.4491;0.4491 0.4491" keySplines="0 0 1 1" calcMode="spline" />
        <animateTransform repeatCount="indefinite" dur="3.2s" begin="0s" xlink:href="#_R_G_L_0_G_L_2_G" fill="freeze" attributeName="transform" from="-1704.341 -694.772" to="-1704.341 -694.772" type="translate" additive="sum" keyTimes="0;1" values="-1704.341 -694.772;-1704.341 -694.772" keySplines="0 0 1 1" calcMode="spline" />
        <animateMotion repeatCount="indefinite" dur="3.2s" begin="0s" xlink:href="#_R_G_L_0_G_L_1_G" fill="freeze" keyTimes="0;0.2083333;0.6770833;0.9895833;1" path="M1357.19 696.39 C1357.19,696.39 1357.19,696.39 1357.19,696.39 C1357.19,692.72 1357.19,674.39 1357.19,674.39 C1357.19,674.39 1357.19,692.72 1357.19,696.39 C1357.19,696.39 1357.19,696.39 1357.19,696.39 " keyPoints="0;0;0.5;1;1" keySplines="0.534 0 0.206 1;0.534 0 0.206 1;0.498 0 0.142 1;0 0 0 0" calcMode="spline" />
        <animateTransform repeatCount="indefinite" dur="3.2s" begin="0s" xlink:href="#_R_G_L_0_G_L_1_G" fill="freeze" attributeName="transform" from="0.4491 0.4491" to="0.4491 0.4491" type="scale" additive="sum" keyTimes="0;1" values="0.4491 0.4491;0.4491 0.4491" keySplines="0 0 1 1" calcMode="spline" />
        <animateTransform repeatCount="indefinite" dur="3.2s" begin="0s" xlink:href="#_R_G_L_0_G_L_1_G" fill="freeze" attributeName="transform" from="-2219.636 -697.351" to="-2219.636 -697.351" type="translate" additive="sum" keyTimes="0;1" values="-2219.636 -697.351;-2219.636 -697.351" keySplines="0 0 1 1" calcMode="spline" />
        <animateMotion repeatCount="indefinite" dur="3.2s" begin="0s" xlink:href="#_R_G_L_0_G_L_0_G" fill="freeze" keyTimes="0;0.2604167;0.7291667;1" path="M1526.19 663.39 C1526.19,663.39 1526.19,663.39 1526.19,663.39 C1526.19,659.72 1526.19,641.39 1526.19,641.39 C1526.19,641.39 1526.19,659.72 1526.19,663.39 " keyPoints="0;0;0.5;1" keySplines="0.534 0 0.206 1;0.534 0 0.206 1;0.402 0 0.142 1" calcMode="spline" />
        <animateTransform repeatCount="indefinite" dur="3.2s" begin="0s" xlink:href="#_R_G_L_0_G_L_0_G" fill="freeze" attributeName="transform" from="0.4491 0.4491" to="0.4491 0.4491" type="scale" additive="sum" keyTimes="0;1" values="0.4491 0.4491;0.4491 0.4491" keySplines="0 0 1 1" calcMode="spline" />
        <animateTransform repeatCount="indefinite" dur="3.2s" begin="0s" xlink:href="#_R_G_L_0_G_L_0_G" fill="freeze" attributeName="transform" from="-2596.652 -624.797" to="-2596.652 -624.797" type="translate" additive="sum" keyTimes="0;1" values="-2596.652 -624.797;-2596.652 -624.797" keySplines="0 0 1 1" calcMode="spline" />
        <animate attributeType="XML" attributeName="opacity" dur="3s" from="0" to="1" xlink:href="#time_group" />
    </defs>
    <g id="_R_G">
        <g id="_R_G_L_0_G" transform=" translate(624, 540) scale(0.75, 0.75) translate(-960, -540)">
            <g id="_R_G_L_0_G_L_5_G">
                <path id="_R_G_L_0_G_L_5_G_D_0_P_0" fill="#ffffff" fill-opacity="1" fill-rule="nonzero" d=" M525.54 230.59 C520.04,222.23 510.37,216.74 499.6,216.74 C493.32,216.74 487.48,218.61 482.57,221.83 C479.07,224.13 476.05,227.11 473.67,230.59 C473.67,230.59 470.81,235.86 470.81,235.86 C470.81,235.86 252.41,619.8 252.41,619.8 C243.4,636.5 227.73,656.53 212.56,667.74 C190.37,684.66 162.67,694.77 132.78,694.77 C59.59,694.77 0.25,635.43 0.25,562.24 C0.25,532.01 11.53,506.75 26.41,480.92 C26.41,480.92 36.52,462.9 36.52,462.9 C36.52,462.9 275.2,43.11 275.2,43.11 C289.05,17.61 316.08,0.25 347.07,0.25 C378.28,0.25 405.32,17.61 419.16,43.11 C419.16,43.11 499.6,184.65 499.6,184.65 C499.6,184.65 525.54,230.59 525.54,230.59z " />
            </g>
            <g id="_R_G_L_0_G_L_4_G">
                <path id="_R_G_L_0_G_L_4_G_D_0_P_0" fill="#0f63fa" fill-opacity="1" fill-rule="nonzero" d=" M694.11 562.24 C694.11,635.43 634.77,694.77 561.58,694.77 C561.58,694.77 347.07,694.77 347.07,694.77 C336.3,694.77 325.75,694.33 315.2,693.23 C315.2,693.23 507.3,355.2 507.3,355.2 C507.3,355.2 509.93,350.59 509.93,350.59 C519.17,337.18 534.55,328.39 551.91,328.39 C569.28,328.39 584.66,337.18 593.89,350.37 C593.89,350.37 596.75,355.42 596.75,355.42 C596.75,355.42 667.96,480.92 667.96,480.92 C667.96,480.92 674.99,494.11 674.99,494.11 C686.31,514.06 694.11,537.19 694.11,562.24z " />
            </g>
            <g id="_R_G_L_0_G_L_3_G">
                <path id="_R_G_L_0_G_L_3_G_D_0_P_0" fill="#ffffff" fill-opacity="1" fill-rule="nonzero" d=" M1299.38 367.7 C1339.26,338.97 1359.43,296.18 1359.43,240.06 C1359.43,187.95 1340.63,145.78 1303.54,114.71 C1267.4,84.46 1216.47,69.11 1152.16,69.11 C1152.16,69.11 960.08,69.11 960.08,69.11 C925.16,69.11 896.76,97.52 896.76,132.43 C896.76,132.43 896.76,631.45 896.76,631.45 C896.76,666.36 925.16,694.77 960.08,694.77 C960.08,694.77 1157.23,694.77 1157.23,694.77 C1351.58,694.77 1392.37,594.93 1392.37,511.17 C1392.37,445.1 1361.13,396.97 1299.38,367.7z  M1281.87 507.77 C1281.87,532.89 1273.07,551.62 1254.99,565.02 C1235.47,579.48 1200.02,586.81 1149.64,586.81 C1149.64,586.81 1009.79,586.81 1009.79,586.81 C1009.79,586.81 1009.79,429.6 1009.79,429.6 C1009.79,429.6 1150.47,429.6 1150.47,429.6 C1268.24,429.6 1281.87,474.21 1281.87,507.77z  M1009.79 324.16 C1009.79,324.16 1009.79,177.08 1009.79,177.08 C1009.79,177.08 1146.24,177.08 1146.24,177.08 C1171.08,177.08 1191.98,180.79 1208.63,188.12 C1214.52,190.72 1219.89,193.77 1224.7,197.27 C1241.57,209.54 1249.77,226.44 1249.77,248.93 C1249.77,271.92 1241.96,289.62 1225.87,303.02 C1209.28,316.84 1176.78,324.16 1131.89,324.16 C1131.89,324.16 1009.79,324.16 1009.79,324.16z " />
            </g>
            <g id="_R_G_L_0_G_L_2_G">
                <path id="_R_G_L_0_G_L_2_G_D_0_P_0" fill="#ffffff" fill-opacity="1" fill-rule="nonzero" d=" M1830.99 274.87 C1794.31,247.16 1750.53,232.5 1704.39,232.5 C1667.63,232.5 1632.36,241.82 1600.97,259.64 C1591.78,240.86 1572.47,227.89 1550.19,227.89 C1519.04,227.89 1493.69,253.24 1493.69,284.39 C1493.69,284.39 1493.69,638.28 1493.69,638.28 C1493.69,669.43 1519.04,694.77 1550.19,694.77 C1581.34,694.77 1606.69,669.43 1606.69,638.28 C1606.69,638.28 1606.69,441.78 1606.69,441.78 C1606.69,406.7 1624.02,374.28 1651.93,357.18 C1679.56,340.22 1715.18,337.89 1744.71,350.81 C1779.51,366.05 1802,401.97 1802,442.31 C1802,442.31 1802,638.28 1802,638.28 C1802,669.43 1827.34,694.77 1858.49,694.77 C1889.64,694.77 1914.99,669.43 1914.99,638.28 C1914.99,638.28 1914.99,443.11 1914.99,443.11 C1914.99,376.35 1884.37,315.02 1830.99,274.87z " />
            </g>
            <g id="_R_G_L_0_G_L_1_G">
                <path id="_R_G_L_0_G_L_1_G_D_0_P_0" fill="#ffffff" fill-opacity="1" fill-rule="nonzero" d=" M2374.87 268.45 C2341.58,232.04 2293.76,213.58 2232.73,213.58 C2183.68,213.58 2136.54,221.59 2092.6,237.4 C2071.12,245.11 2057.28,266.5 2058.95,289.4 C2060.1,305.14 2068.25,319.26 2081.3,328.13 C2094.23,336.92 2110.16,339.28 2125.02,334.64 C2150.96,326.51 2178.54,322.39 2206.97,322.39 C2246.64,322.39 2275.33,329.27 2289.92,342.28 C2302.36,353.41 2309.44,372.01 2311,397.67 C2311,397.67 2227.24,397.67 2227.24,397.67 C2159.9,397.67 2107.51,411.4 2071.53,438.47 C2033.95,466.75 2014.9,504.28 2014.9,550.05 C2014.9,595.34 2030.51,631.77 2061.28,658.31 C2091.23,684.21 2128.03,697.35 2170.64,697.35 C2226.66,697.35 2274.98,682.02 2314.73,651.7 C2322.64,673.38 2343.47,688.91 2367.85,688.91 C2399.02,688.91 2424.37,663.55 2424.37,632.39 C2424.37,632.39 2424.37,398.04 2424.37,398.04 C2424.37,348 2407.72,304.4 2374.87,268.45z  M2311.34 495.5 C2311.34,495.5 2311.34,541.35 2311.34,541.35 C2297.89,555.49 2281.58,567.64 2262.74,577.51 C2242.4,588.18 2221.08,593.6 2199.36,593.6 C2136.05,593.6 2127.93,567.39 2127.93,544.55 C2127.93,512.01 2164.75,495.5 2237.36,495.5 C2237.36,495.5 2311.34,495.5 2311.34,495.5z " />
            </g>
            <g id="_R_G_L_0_G_L_0_G">
                <path id="_R_G_L_0_G_L_0_G_D_0_P_0" fill="#0f63fa" fill-opacity="1" fill-rule="nonzero" d=" M2669.02 644.15 C2669.02,672.11 2646.35,694.77 2618.4,694.77 C2618.4,694.77 2536.46,694.77 2536.46,694.77 C2532.34,694.77 2528.31,694.61 2524.28,694.19 C2524.28,694.19 2597.66,565.06 2597.66,565.06 C2597.66,565.06 2598.67,563.3 2598.67,563.3 C2602.19,558.18 2608.07,554.82 2614.7,554.82 C2621.33,554.82 2627.21,558.18 2630.74,563.22 C2630.74,563.22 2631.83,565.15 2631.83,565.15 C2631.83,565.15 2659.03,613.09 2659.03,613.09 C2659.03,613.09 2661.72,618.12 2661.72,618.12 C2666.04,625.74 2669.02,634.58 2669.02,644.15z " />
            </g>
        </g>
    </g>
    <g id="time_group" />
</svg>